<svg xmlns="http://www.w3.org/2000/svg" viewBox="330 285 430 540" xml:space="preserve">
<path fill="#c49a2c" d="M576.17 321.187c6.233-5.869 13.31-9.997 20.077-14.502 8.851-5.893 17.57-2.137 25.359 2.292 7.56 4.299 8.005 12.664 7.938 20.379-.06 7.06-2.163 13.768-5.836 19.901-1.71 2.858-3.766 5.598-4.95 8.667-5.391 13.985-13.82 25.703-25.147 35.48-2.186 1.887-4.154 4.287-4.985 7.536 2.209 1.53 4.16.429 6.05-.426 5.491-2.485 10.37-6.002 15.393-9.275 10.025-6.533 20.819-10.18 32.981-9.602 10.566.502 19.347 5.513 26.89 11.861 9.457 7.96 7.57 25.218-3.57 32.149-7.602 4.73-15.76 9.048-25.292 9.879-10.698.932-20.426-1.916-30.032-5.84-5.678-2.32-11.409-4.352-18.033-5.621.643 3.697 3.101 5.23 5.098 6.997 4.738 4.192 9.637 8.203 14.369 12.401 8.022 7.117 12.449 16.34 15.12 26.515 2.214 8.437-1.299 18.73-7.646 22.736-8.667 5.47-17.25 4.822-25.222-1.915-2.495-2.109-4.971-4.24-8.591-7.33-4.045 21.228-3.183 41.751-7.117 62.212 2.785-.5 3.73-2.348 5.01-3.647 11.371-11.546 24.032-21.08 39.846-25.74 6.283-1.851 12.594-2.77 19.195-1.672 13.282 2.208 18.96 14.436 11.773 25.819-3.868 6.125-9.473 10.252-16.001 13.1-8.636 3.767-17.677 5.705-27.148 5.834-6.978.095-13.98.38-20.834 1.898-7.333 1.623-13.055 5.448-16.95 12.091-2.62 4.472-4.88 9.087-7.019 13.787-6.806 14.965-15.517 28.363-30.378 36.657-2.311 1.29-3.586 3.284-4.427 5.781-3.053 9.07-7.48 17.424-13.367 24.996-2.347 3.018-4.991 5.199-8.863 2.761-3.355-2.112-3.586-6.144-.598-9.96 3.827-4.888 6.84-10.216 9.425-15.843 1.933-4.208 1.429-6.895-3.151-9.196-12.412-6.234-19.794-16.413-22.125-30.197-1.297-7.674 2.079-16.571 7.662-19.82 7.007-4.075 15.483-3.036 22.098 3.073 8.038 7.425 11.106 17.142 12.143 27.702.172 1.75-.54 3.704 1.23 5.346 3.754-1.051 5.736-4.266 7.923-7.058 9.518-12.153 15.106-26.183 19-40.95 5.204-19.73 6.53-40.003 8.292-60.217 1.068-12.261 2.299-24.51 3.607-36.748.923-8.643-.058-17.02-2.381-26.135-2.557 2.786-2.847 5.507-3.566 7.974-2.28 7.83-4.193 15.786-8.319 22.937-4.79 8.301-11.655 13.704-21.032 16.412-11.27 3.253-26.667-10.703-23.746-23.565 2.85-12.547 10.377-21.38 20.473-28.443 3.946-2.76 8.314-4.91 12.44-7.418 1.811-1.1 3.712-2.214 4.575-5.461-5.784-1.368-11.335-.769-16.772-.094-5.495.681-10.972.866-16.45.498-16.767-1.128-28.877-15.576-32.194-29.86-2.427-10.45 9.374-26.464 19.144-29.918 16.656-5.89 29.064.298 40.529 11.461 4.205 4.095 7.71 8.728 11.292 13.327 1.706 2.19 3.169 4.693 6.569 6.11 1.486-4.171.98-8.19.198-12.138-2.312-11.66-3.874-23.369-1.438-35.17 1.743-8.446 5.458-16.046 11.481-22.808m34.813 214.288c-4.92 3.421-9.89 6.786-14.52 11.996 11.188.616 21.065-.101 30.796-2.354 5.75-1.33 10.957-3.884 15.151-8.142 1.987-2.016 4.136-4.316 2.94-7.406-1.211-3.133-4.286-3.306-7.176-3.28-9.793.093-18.393 3.822-27.191 9.186M506.25 584.19c-3.281 10.382 5.404 25.41 15.616 27.021 3.385-8.342-.923-22.99-8.181-27.715-2.345-1.527-4.742-2.679-7.435.694"/><path fill="#ce9b00" d="M415.948 375.114c15.419-34.035 41.12-54.714 77.452-61.759 14.768-2.863 29.482-1.7 43.91 2.665 3.88 1.175 6.821 3.12 5.717 7.816-.836 3.556-4.216 4.9-8.94 3.583-51.147-14.269-100.776 18.804-112.223 68.831-2.326 10.166-2.857 20.452-3.377 30.717-.766 15.102-6.375 28.06-15.309 39.905-8.595 11.396-19.403 20.582-29.864 30.12-.738.673-1.534 1.283-2.263 1.967-5.369 5.035-4.892 8.355 1.807 11.669 3.58 1.77 7.335 3.19 10.914 4.965 12.196 6.05 15.067 15.825 8.216 27.669-6.054 10.467-6.028 10.538 5.084 16.03 1.34.662 2.777 1.233 3.935 2.144 3.983 3.137 3.59 8.688-.731 11.32-.705.43-1.517.682-2.275 1.025-8.005 3.625-8.088 4.14-2.306 10.338 5.338 5.72 6.444 12.61 5.039 20.021-.898 4.74-2.263 9.396-3.08 14.148-1.75 10.187 3.708 17.496 13.838 19.551 9.846 1.998 19.617.134 29.394-.163 17.405-.529 34.214 1.254 50.05 9.149 11.681 5.823 21.388 14.016 29.947 23.73 2.616 2.969 5.369 5.817 8.432 9.124 3.932-4.78 7.78-8.907 12.581-11.948 9.98-6.322 20.6-9.508 32.3-5.741 8.952 2.881 14.79 8.797 16.164 18.435 1.338 9.393-2.412 16.713-9.901 21.977-11.77 8.272-24.386 7.629-37.13 2.484-3.206-1.294-6.201-3.113-9.466-4.779-1.946 2.258-2.18 4.987-2.451 7.525-2.293 21.432 4.392 39.69 19.707 54.818.593.586 1.196 1.16 1.79 1.745 2.755 2.706 3.566 5.78.856 8.829-2.89 3.251-5.99 1.97-8.81-.356-4.926-4.06-9.127-8.843-12.582-14.151-11.992-18.422-16.716-38.259-11.016-59.975 1.26-4.796.567-8.982-2.857-12.98-14.503-16.94-30.76-31.074-53.777-34.702-7.726-1.218-15.47-1.778-23.366-1.125-10.44.863-21.022 1.69-31.396-.18-18.497-3.337-27.408-16.936-23.797-35.446.892-4.567 2.032-9.092 2.75-13.684.598-3.827-.668-7.16-3.47-9.983-9.14-9.208-9.206-13.482-.51-23.134-.262-1.748-1.939-2.125-3.064-2.993-7.76-5.985-9.14-13.653-3.888-21.947.09-.14.176-.285.28-.414 9.321-11.528 4.73-14.564-5.832-18.55-4.387-1.655-8.579-3.663-12.122-6.824-6.758-6.029-7.571-15.06-1.541-21.824 3.756-4.214 8.006-8.005 12.177-11.83 8.6-7.885 17.187-15.753 24.135-25.236 7.646-10.436 11.6-22.126 11.551-34.971-.062-16.403 3.157-32.075 9.318-47.605m131.868 303.158c-2.279 2.168-4.59 4.303-6.826 6.514-2.174 2.15-1.8 4.153.685 5.712 8.639 5.42 17.764 8.301 27.858 4.543 6.48-2.413 10.022-7.765 9.122-13.221-.85-5.164-5.833-9.06-12.496-9.463-6.565-.397-12.348 2.006-18.343 5.915M722.23 426.591c-.51 1.81-1.041 3.243-1.168 4.71-.68 7.838 1.263 9.966 9.603 10.718-1.684 4.4-7.112 6.267-14.268 4.907-9.127-1.734-16.249-10.99-16.018-20.819.249-10.581 7.828-18.762 18.587-20.062 8.037-.971 15.985 3.724 18.295 11.278-6.38.56-11.936 2.701-15.031 9.268m-4.955 64.204c-1.888-1.777-3.11-3.568-3.418-5.768-.638-4.544.7-8.26 5.1-10.27 4.128-1.885 7.878-.943 10.762 2.433 2.981 3.49 3.598 7.49.866 11.429-2.641 3.808-6.294 5.23-10.829 3.587-.767-.278-1.456-.772-2.481-1.41"/></svg>